<svg width="200" height="72" viewBox="0 0 908 242" fill="none" xmlns="http://www.w3.org/2000/svg">
<path d="M108.592 106.234L102.553 90.8046H83.1085L77.1357 106.234H71.4285L90.6076 57.5232H95.3526L114.432 106.234H108.592ZM100.794 85.7278L95.1535 70.6964C94.4235 68.794 93.6713 66.4602 92.8971 63.695C92.4104 65.8187 91.7136 68.1525 90.8066 70.6964L85.0994 85.7278H100.794Z" fill="#71008D"/>
<path d="M123.99 135.5H96.9471V86.9882H123.99V91.9986H102.588V107.627H122.696V112.605H102.588V130.456H123.99V135.5Z" fill="#393338"/>
<path d="M113.316 86.3928V37.881H118.957V86.3928H113.316Z" fill="#A90096"/>
<path d="M129.87 90.5238V110.698H124.229V62.1866H137.535C143.486 62.1866 147.877 63.3258 150.708 65.6043C153.562 67.8828 154.989 71.3116 154.989 75.8906C154.989 82.3058 151.737 86.6416 145.233 88.8979L158.406 110.698H151.737L139.99 90.5238H129.87ZM129.87 85.6793H137.601C141.583 85.6793 144.503 84.894 146.361 83.3234C148.22 81.7306 149.149 79.3526 149.149 76.1893C149.149 72.9817 148.197 70.67 146.295 69.2543C144.415 67.8385 141.384 67.1306 137.203 67.1306H129.87V85.6793Z" fill="#343434"/>
<path d="M158.462 110.083H174.953V133.675C172.387 134.493 169.777 135.113 167.122 135.533C164.467 135.953 161.393 136.164 157.897 136.164C150.553 136.164 144.835 133.985 140.742 129.627C136.65 125.247 134.604 119.119 134.604 111.244C134.604 106.2 135.61 101.787 137.623 98.0046C139.658 94.1997 142.578 91.3018 146.383 89.3109C150.188 87.2979 154.646 86.2914 159.756 86.2914C164.932 86.2914 169.754 87.2426 174.223 89.145L172.033 94.1223C167.653 92.2641 163.439 91.335 159.391 91.335C153.484 91.335 148.872 93.0936 145.554 96.6109C142.236 100.128 140.577 105.006 140.577 111.244C140.577 117.792 142.169 122.758 145.355 126.143C148.562 129.527 153.263 131.22 159.457 131.22C162.819 131.22 166.104 130.832 169.312 130.058V115.126H158.462V110.083Z" fill="#6A0094"/>
<path d="M132.404 193.948H117.027C113.568 193.947 110.25 192.574 107.802 190.129C105.353 187.685 103.974 184.369 103.966 180.909V164.019C99.2886 162.562 94.7751 160.625 90.4973 158.237L79.7676 168.903C74.7548 173.823 66.2629 173.776 61.3232 168.845L50.4526 157.903C48.021 155.447 46.6626 152.126 46.6753 148.669C46.688 145.212 48.0708 141.902 50.5204 139.463L61.8656 128.193C60.197 124.825 58.7964 121.33 57.677 117.741H40.8183C37.3585 117.725 34.0457 116.34 31.6027 113.89C29.1596 111.439 27.7847 108.121 27.7778 104.66V89.2726C27.7806 85.8129 29.155 82.4954 31.5997 80.048C34.0444 77.6006 37.3596 76.223 40.8183 76.2175H57.7031C59.1569 71.5465 61.0939 67.0399 63.4827 62.771L50.9116 50.0707C49.6995 48.8544 48.741 47.4093 48.0918 45.8194C47.4426 44.2295 47.1157 42.5264 47.1299 40.809C47.1355 39.0962 47.481 37.4016 48.1462 35.8234C48.8115 34.2451 49.7834 32.8147 51.0055 31.6151L61.9126 20.7567C66.9097 15.8519 75.459 15.9041 80.3623 20.8193L93.5279 34.1093C96.8663 32.4395 100.377 31.0307 104.007 29.9193V13.0447C104.007 5.84924 109.86 0 117.048 0H132.446C135.902 0.00552288 139.215 1.38181 141.659 3.82712C144.103 6.27242 145.477 9.5872 145.481 13.0447V29.9402C149.248 31.1077 152.909 32.5931 156.425 34.3806L169.716 21.2107C174.728 16.285 183.241 16.358 188.16 21.2733L199.01 32.2099C201.446 34.6467 202.791 37.9287 202.791 41.4456C202.791 43.1604 202.451 44.8581 201.789 46.44C201.127 48.0219 200.158 49.4565 198.937 50.6603L186.287 63.2354C188.556 67.3784 190.403 71.7406 191.791 76.2488H208.691C212.147 76.2543 215.461 77.6306 217.904 80.0759C220.348 82.5212 221.722 85.836 221.726 89.2935V104.655C221.725 108.115 220.352 111.433 217.908 113.881C215.464 116.329 212.15 117.708 208.691 117.715H191.791C190.629 121.49 189.14 125.157 187.341 128.673L198.603 140.016C201.034 142.422 202.379 145.709 202.379 149.252C202.379 152.727 201.008 155.994 198.525 158.456L187.618 169.32C182.605 174.241 174.04 174.147 169.178 169.247L158.532 158.514C154.375 160.799 150.03 162.652 145.559 164.034V180.935C145.501 184.393 144.092 187.691 141.633 190.123C139.174 192.556 135.862 193.928 132.404 193.948ZM89.7097 152.028L91.3632 153.004C96.296 155.937 101.592 158.211 107.116 159.766L108.926 160.272V180.899C108.926 185.355 112.562 188.981 117.027 188.981H132.404C134.553 188.969 136.613 188.118 138.143 186.609C139.674 185.1 140.555 183.053 140.599 180.904V160.304L142.409 159.797C147.766 158.296 152.905 156.105 157.698 153.28L159.351 152.305L172.689 165.746C175.699 168.783 181.014 168.835 184.128 165.782L195.025 154.924C196.563 153.4 197.414 151.381 197.414 149.242C197.414 147.035 196.589 145.005 195.092 143.523L181.233 129.555L182.114 127.937C184.462 123.617 186.282 119.114 187.534 114.564L188.04 112.743H208.691C213.146 112.743 216.771 109.111 216.771 104.644V89.2831C216.771 84.827 213.146 81.1954 208.691 81.1954H188.045L187.539 79.3795C186.047 74.0114 183.868 68.8587 181.056 64.0494L180.085 62.3901L195.437 47.1278C196.981 45.5938 197.831 43.5693 197.831 41.4299C197.831 39.2384 197.001 37.2035 195.494 35.7007L184.644 24.764C183.11 23.2778 181.059 22.4443 178.923 22.4384C176.787 22.4326 174.732 23.2549 173.19 24.7327L157.317 40.4646L155.7 39.5932C151.46 37.292 146.976 35.4735 142.331 34.1719L140.515 33.6657V13.0447C140.515 8.58862 136.89 4.95698 132.435 4.95698H117.037C112.583 4.95698 108.957 8.5834 108.957 13.0447V33.6605L107.142 34.1666C102.604 35.4242 98.259 37.1669 94.2165 39.3376L92.5838 40.2142L76.8361 24.3205C73.8055 21.2941 68.4798 21.2472 65.3866 24.2892L54.4899 35.1372C53.7311 35.8797 53.1277 36.766 52.7148 37.7442C52.302 38.7225 52.088 39.7732 52.0853 40.8351C52.0763 41.9005 52.2791 42.9571 52.6821 43.9434C53.0851 44.9296 53.6801 45.8259 54.4326 46.58L69.6795 61.9884L68.7041 63.632C65.7723 68.5593 63.4995 73.8502 61.9439 79.3691L61.4379 81.1797H40.8183C36.3637 81.1797 32.7384 84.8113 32.7384 89.2726V104.66C32.7384 109.121 36.3637 112.763 40.8287 112.779H61.4275L61.9334 114.595C63.1436 118.957 64.8806 123.298 67.1079 127.509L67.9686 129.132L54.0205 142.975C52.5028 144.485 51.6456 146.535 51.6368 148.676C51.628 150.817 52.4683 152.875 53.9735 154.397L64.8389 165.334C67.906 168.386 73.1796 168.417 76.2884 165.365L89.7097 152.028Z" fill="#5DD5EC"/>
<path d="M8.00868 216.893L7.23848 214.364H3.36565L2.59545 216.893H0.168571L3.91787 206.226H6.67172L10.4356 216.893H8.00868ZM6.70079 212.475C5.98871 210.184 5.58665 208.888 5.49462 208.588C5.40742 208.287 5.34445 208.05 5.3057 207.876C5.14584 208.496 4.68808 210.029 3.93241 212.475H6.70079ZM14.1776 217.038C13.2233 217.038 12.4725 216.668 11.9251 215.926C11.3826 215.185 11.1113 214.158 11.1113 212.846C11.1113 211.513 11.3874 210.477 11.9396 209.736C12.4967 208.99 13.2621 208.617 14.2357 208.617C15.2578 208.617 16.0377 209.014 16.5754 209.808H16.6481C16.5367 209.203 16.4809 208.663 16.4809 208.188V205.587H18.7044V216.893H17.0041L16.5754 215.839H16.4809C15.9772 216.639 15.2094 217.038 14.1776 217.038ZM14.9551 215.272C15.5218 215.272 15.936 215.108 16.1976 214.778C16.464 214.449 16.6093 213.89 16.6335 213.1V212.86C16.6335 211.988 16.4979 211.363 16.2266 210.985C15.9602 210.608 15.5242 210.419 14.9187 210.419C14.4246 210.419 14.0395 210.629 13.7634 211.051C13.4922 211.467 13.3565 212.075 13.3565 212.875C13.3565 213.674 13.4946 214.275 13.7707 214.677C14.0468 215.074 14.4416 215.272 14.9551 215.272ZM22.955 216.893L19.8597 208.769H22.1776L23.747 213.398C23.9214 213.984 24.0304 214.539 24.074 215.062H24.1176C24.1418 214.597 24.2508 214.042 24.4446 213.398L26.0068 208.769H28.3247L25.2293 216.893H22.955ZM34.6534 216.893L34.2247 215.788H34.1666C33.7936 216.258 33.4085 216.585 33.0113 216.769C32.6189 216.949 32.1055 217.038 31.4709 217.038C30.691 217.038 30.0758 216.815 29.6253 216.37C29.1796 215.924 28.9568 215.289 28.9568 214.466C28.9568 213.604 29.2572 212.969 29.8578 212.562C30.4633 212.15 31.374 211.923 32.5899 211.879L33.9995 211.836V211.48C33.9995 210.656 33.5781 210.244 32.7352 210.244C32.0861 210.244 31.3231 210.441 30.4464 210.833L29.7125 209.336C30.6474 208.847 31.684 208.602 32.8224 208.602C33.9123 208.602 34.7479 208.84 35.3292 209.314C35.9105 209.789 36.2011 210.511 36.2011 211.48V216.893H34.6534ZM33.9995 213.129L33.1421 213.158C32.4978 213.177 32.0183 213.294 31.7034 213.507C31.3885 213.72 31.2311 214.045 31.2311 214.48C31.2311 215.105 31.5896 215.418 32.3065 215.418C32.82 215.418 33.2293 215.27 33.5345 214.975C33.8445 214.679 33.9995 214.287 33.9995 213.797V213.129ZM45.9885 216.893H43.7724V212.148C43.7724 211.562 43.6682 211.124 43.4599 210.833C43.2516 210.537 42.9198 210.39 42.4645 210.39C41.8444 210.39 41.3964 210.598 41.1203 211.015C40.8441 211.426 40.7061 212.112 40.7061 213.071V216.893H38.4899V208.769H40.1829L40.4808 209.808H40.6044C40.8514 209.416 41.1905 209.121 41.6216 208.922C42.0576 208.718 42.5517 208.617 43.1039 208.617C44.0485 208.617 44.7654 208.873 45.2547 209.387C45.7439 209.896 45.9885 210.632 45.9885 211.596V216.893ZM51.5689 217.038C49.0403 217.038 47.776 215.65 47.776 212.875C47.776 211.494 48.1199 210.441 48.8078 209.714C49.4956 208.982 50.4814 208.617 51.7651 208.617C52.7048 208.617 53.5477 208.801 54.2937 209.169L53.6397 210.884C53.291 210.743 52.9664 210.629 52.6661 210.542C52.3657 210.45 52.0654 210.404 51.7651 210.404C50.6122 210.404 50.0357 211.223 50.0357 212.86C50.0357 214.449 50.6122 215.243 51.7651 215.243C52.1914 215.243 52.5861 215.188 52.9494 215.076C53.3128 214.96 53.6761 214.781 54.0394 214.539V216.435C53.6809 216.663 53.3176 216.82 52.9494 216.907C52.5861 216.995 52.126 217.038 51.5689 217.038ZM59.2927 210.193C58.8229 210.193 58.4547 210.344 58.1883 210.644C57.9219 210.939 57.7693 211.361 57.7305 211.908H60.8404C60.8307 211.361 60.6878 210.939 60.4117 210.644C60.1356 210.344 59.7626 210.193 59.2927 210.193ZM59.6052 217.038C58.2973 217.038 57.2752 216.677 56.5389 215.955C55.8026 215.234 55.4345 214.212 55.4345 212.889C55.4345 211.528 55.7735 210.477 56.4517 209.736C57.1347 208.99 58.0769 208.617 59.2782 208.617C60.4263 208.617 61.32 208.944 61.9594 209.598C62.5988 210.252 62.9185 211.155 62.9185 212.308V213.383H57.6797C57.7039 214.013 57.8904 214.505 58.2392 214.858C58.5879 215.212 59.0772 215.389 59.7069 215.389C60.1962 215.389 60.6588 215.338 61.0947 215.236C61.5307 215.134 61.986 214.972 62.4608 214.749V216.464C62.0732 216.658 61.6591 216.801 61.2183 216.893C60.7775 216.99 60.2398 217.038 59.6052 217.038ZM67.2927 217.038C66.3384 217.038 65.5876 216.668 65.0402 215.926C64.4977 215.185 64.2264 214.158 64.2264 212.846C64.2264 211.513 64.5025 210.477 65.0548 209.736C65.6118 208.99 66.3772 208.617 67.3508 208.617C68.3729 208.617 69.1528 209.014 69.6905 209.808H69.7632C69.6518 209.203 69.5961 208.663 69.5961 208.188V205.587H71.8195V216.893H70.1192L69.6905 215.839H69.5961C69.0923 216.639 68.3245 217.038 67.2927 217.038ZM68.0702 215.272C68.6369 215.272 69.0511 215.108 69.3127 214.778C69.5791 214.449 69.7244 213.89 69.7487 213.1V212.86C69.7487 211.988 69.613 211.363 69.3417 210.985C69.0753 210.608 68.6394 210.419 68.0339 210.419C67.5398 210.419 67.1547 210.629 66.8785 211.051C66.6073 211.467 66.4716 212.075 66.4716 212.875C66.4716 213.674 66.6097 214.275 66.8858 214.677C67.1619 215.074 67.5567 215.272 68.0702 215.272ZM84.2954 216.893H78.1773V206.27H84.2954V208.115H80.4298V210.448H84.0265V212.293H80.4298V215.033H84.2954V216.893ZM93.843 216.893H91.6269V212.148C91.6269 211.562 91.5227 211.124 91.3144 210.833C91.1061 210.537 90.7743 210.39 90.319 210.39C89.6989 210.39 89.2508 210.598 88.9747 211.015C88.6986 211.426 88.5606 212.112 88.5606 213.071V216.893H86.3444V208.769H88.0374L88.3353 209.808H88.4588C88.7059 209.416 89.045 209.121 89.4761 208.922C89.9121 208.718 90.4062 208.617 90.9584 208.617C91.903 208.617 92.6199 208.873 93.1091 209.387C93.5984 209.896 93.843 210.632 93.843 211.596V216.893ZM103.194 208.769V209.896L101.923 210.223C102.155 210.586 102.272 210.993 102.272 211.443C102.272 212.315 101.966 212.996 101.356 213.485C100.751 213.969 99.9078 214.212 98.8275 214.212L98.4279 214.19L98.1009 214.154C97.8733 214.328 97.7594 214.522 97.7594 214.735C97.7594 215.055 98.1663 215.214 98.9801 215.214H100.361C101.252 215.214 101.93 215.406 102.395 215.788C102.865 216.171 103.1 216.733 103.1 217.474C103.1 218.424 102.703 219.16 101.908 219.683C101.119 220.206 99.9829 220.468 98.5006 220.468C97.3671 220.468 96.5 220.269 95.8993 219.872C95.3035 219.48 95.0056 218.927 95.0056 218.215C95.0056 217.726 95.1582 217.317 95.4633 216.987C95.7685 216.658 96.2166 216.423 96.8076 216.282C96.5799 216.186 96.3813 216.028 96.2118 215.81C96.0422 215.587 95.9574 215.352 95.9574 215.105C95.9574 214.795 96.0471 214.539 96.2263 214.335C96.4055 214.127 96.6647 213.923 97.0038 213.725C96.5775 213.541 96.2384 213.245 95.9865 212.838C95.7395 212.431 95.6159 211.952 95.6159 211.4C95.6159 210.513 95.9042 209.828 96.4806 209.343C97.057 208.859 97.8805 208.617 98.9511 208.617C99.1787 208.617 99.4476 208.639 99.7576 208.682C100.072 208.721 100.273 208.75 100.361 208.769H103.194ZM96.9238 218.041C96.9238 218.346 97.0691 218.586 97.3598 218.76C97.6553 218.935 98.067 219.022 98.595 219.022C99.3895 219.022 100.012 218.913 100.462 218.695C100.913 218.477 101.138 218.179 101.138 217.801C101.138 217.496 101.005 217.285 100.739 217.169C100.472 217.053 100.06 216.995 99.5033 216.995H98.3552C97.9483 216.995 97.6068 217.089 97.3307 217.278C97.0595 217.472 96.9238 217.726 96.9238 218.041ZM97.7304 211.429C97.7304 211.87 97.8297 212.218 98.0283 212.475C98.2317 212.732 98.5393 212.86 98.9511 212.86C99.3677 212.86 99.6728 212.732 99.8666 212.475C100.06 212.218 100.157 211.87 100.157 211.429C100.157 210.45 99.7552 209.961 98.9511 209.961C98.1373 209.961 97.7304 210.45 97.7304 211.429ZM104.444 206.669C104.444 205.948 104.846 205.587 105.65 205.587C106.455 205.587 106.857 205.948 106.857 206.669C106.857 207.013 106.755 207.282 106.551 207.476C106.353 207.665 106.052 207.759 105.65 207.759C104.846 207.759 104.444 207.396 104.444 206.669ZM106.755 216.893H104.539V208.769H106.755V216.893ZM116.586 216.893H114.37V212.148C114.37 211.562 114.266 211.124 114.057 210.833C113.849 210.537 113.517 210.39 113.062 210.39C112.442 210.39 111.994 210.598 111.718 211.015C111.441 211.426 111.303 212.112 111.303 213.071V216.893H109.087V208.769H110.78L111.078 209.808H111.202C111.449 209.416 111.788 209.121 112.219 208.922C112.655 208.718 113.149 208.617 113.701 208.617C114.646 208.617 115.363 208.873 115.852 209.387C116.341 209.896 116.586 210.632 116.586 211.596V216.893ZM122.232 210.193C121.762 210.193 121.394 210.344 121.127 210.644C120.861 210.939 120.708 211.361 120.669 211.908H123.779C123.77 211.361 123.627 210.939 123.351 210.644C123.074 210.344 122.701 210.193 122.232 210.193ZM122.544 217.038C121.236 217.038 120.214 216.677 119.478 215.955C118.741 215.234 118.373 214.212 118.373 212.889C118.373 211.528 118.712 210.477 119.391 209.736C120.074 208.99 121.016 208.617 122.217 208.617C123.365 208.617 124.259 208.944 124.898 209.598C125.538 210.252 125.857 211.155 125.857 212.308V213.383H120.619C120.643 214.013 120.829 214.505 121.178 214.858C121.527 215.212 122.016 215.389 122.646 215.389C123.135 215.389 123.598 215.338 124.034 215.236C124.47 215.134 124.925 214.972 125.4 214.749V216.464C125.012 216.658 124.598 216.801 124.157 216.893C123.716 216.99 123.179 217.038 122.544 217.038ZM131.024 210.193C130.554 210.193 130.186 210.344 129.919 210.644C129.653 210.939 129.5 211.361 129.461 211.908H132.571C132.562 211.361 132.419 210.939 132.143 210.644C131.866 210.344 131.493 210.193 131.024 210.193ZM131.336 217.038C130.028 217.038 129.006 216.677 128.27 215.955C127.533 215.234 127.165 214.212 127.165 212.889C127.165 211.528 127.504 210.477 128.183 209.736C128.866 208.99 129.808 208.617 131.009 208.617C132.157 208.617 133.051 208.944 133.69 209.598C134.33 210.252 134.649 211.155 134.649 212.308V213.383H129.411C129.435 214.013 129.621 214.505 129.97 214.858C130.319 215.212 130.808 215.389 131.438 215.389C131.927 215.389 132.39 215.338 132.826 215.236C133.262 215.134 133.717 214.972 134.192 214.749V216.464C133.804 216.658 133.39 216.801 132.949 216.893C132.508 216.99 131.971 217.038 131.336 217.038ZM140.985 208.617C141.286 208.617 141.535 208.639 141.734 208.682L141.567 210.76C141.387 210.712 141.169 210.688 140.913 210.688C140.206 210.688 139.653 210.869 139.256 211.233C138.864 211.596 138.668 212.104 138.668 212.758V216.893H136.451V208.769H138.13L138.457 210.135H138.566C138.818 209.68 139.157 209.314 139.583 209.038C140.014 208.757 140.482 208.617 140.985 208.617ZM143.114 206.669C143.114 205.948 143.516 205.587 144.321 205.587C145.125 205.587 145.527 205.948 145.527 206.669C145.527 207.013 145.425 207.282 145.222 207.476C145.023 207.665 144.723 207.759 144.321 207.759C143.516 207.759 143.114 207.396 143.114 206.669ZM145.425 216.893H143.209V208.769H145.425V216.893ZM155.256 216.893H153.04V212.148C153.04 211.562 152.936 211.124 152.727 210.833C152.519 210.537 152.187 210.39 151.732 210.39C151.112 210.39 150.664 210.598 150.388 211.015C150.112 211.426 149.974 212.112 149.974 213.071V216.893H147.757V208.769H149.45L149.748 209.808H149.872C150.119 209.416 150.458 209.121 150.889 208.922C151.325 208.718 151.819 208.617 152.371 208.617C153.316 208.617 154.033 208.873 154.522 209.387C155.011 209.896 155.256 210.632 155.256 211.596V216.893ZM164.607 208.769V209.896L163.336 210.223C163.568 210.586 163.685 210.993 163.685 211.443C163.685 212.315 163.379 212.996 162.769 213.485C162.164 213.969 161.321 214.212 160.241 214.212L159.841 214.19L159.514 214.154C159.286 214.328 159.172 214.522 159.172 214.735C159.172 215.055 159.579 215.214 160.393 215.214H161.774C162.665 215.214 163.343 215.406 163.808 215.788C164.278 216.171 164.513 216.733 164.513 217.474C164.513 218.424 164.116 219.16 163.321 219.683C162.532 220.206 161.396 220.468 159.914 220.468C158.78 220.468 157.913 220.269 157.312 219.872C156.716 219.48 156.419 218.927 156.419 218.215C156.419 217.726 156.571 217.317 156.876 216.987C157.182 216.658 157.63 216.423 158.221 216.282C157.993 216.186 157.794 216.028 157.625 215.81C157.455 215.587 157.37 215.352 157.37 215.105C157.37 214.795 157.46 214.539 157.639 214.335C157.818 214.127 158.078 213.923 158.417 213.725C157.99 213.541 157.651 213.245 157.399 212.838C157.152 212.431 157.029 211.952 157.029 211.4C157.029 210.513 157.317 209.828 157.894 209.343C158.47 208.859 159.294 208.617 160.364 208.617C160.592 208.617 160.861 208.639 161.171 208.682C161.485 208.721 161.686 208.75 161.774 208.769H164.607ZM158.337 218.041C158.337 218.346 158.482 218.586 158.773 218.76C159.068 218.935 159.48 219.022 160.008 219.022C160.802 219.022 161.425 218.913 161.875 218.695C162.326 218.477 162.551 218.179 162.551 217.801C162.551 217.496 162.418 217.285 162.152 217.169C161.885 217.053 161.473 216.995 160.916 216.995H159.768C159.361 216.995 159.02 217.089 158.744 217.278C158.472 217.472 158.337 217.726 158.337 218.041ZM159.143 211.429C159.143 211.87 159.243 212.218 159.441 212.475C159.645 212.732 159.952 212.86 160.364 212.86C160.781 212.86 161.086 212.732 161.28 212.475C161.473 212.218 161.57 211.87 161.57 211.429C161.57 210.45 161.168 209.961 160.364 209.961C159.55 209.961 159.143 210.45 159.143 211.429ZM169.992 216.893V206.27H172.244V216.893H169.992ZM182.242 216.893H180.026V212.148C180.026 211.562 179.922 211.124 179.714 210.833C179.505 210.537 179.174 210.39 178.718 210.39C178.098 210.39 177.65 210.598 177.374 211.015C177.098 211.426 176.96 212.112 176.96 213.071V216.893H174.744V208.769H176.437L176.735 209.808H176.858C177.105 209.416 177.444 209.121 177.875 208.922C178.311 208.718 178.805 208.617 179.358 208.617C180.302 208.617 181.019 208.873 181.508 209.387C181.998 209.896 182.242 210.632 182.242 211.596V216.893ZM192.022 216.893H189.806V212.148C189.806 211.562 189.702 211.124 189.494 210.833C189.286 210.537 188.954 210.39 188.498 210.39C187.878 210.39 187.43 210.598 187.154 211.015C186.878 211.426 186.74 212.112 186.74 213.071V216.893H184.524V208.769H186.217L186.515 209.808H186.638C186.885 209.416 187.224 209.121 187.655 208.922C188.091 208.718 188.586 208.617 189.138 208.617C190.082 208.617 190.799 208.873 191.289 209.387C191.778 209.896 192.022 210.632 192.022 211.596V216.893ZM196.07 212.817C196.07 213.621 196.2 214.229 196.462 214.64C196.728 215.052 197.16 215.258 197.755 215.258C198.346 215.258 198.77 215.055 199.027 214.648C199.289 214.236 199.419 213.626 199.419 212.817C199.419 212.012 199.289 211.409 199.027 211.007C198.765 210.605 198.337 210.404 197.741 210.404C197.15 210.404 196.724 210.605 196.462 211.007C196.2 211.405 196.07 212.008 196.07 212.817ZM201.686 212.817C201.686 214.139 201.338 215.173 200.64 215.919C199.942 216.665 198.971 217.038 197.726 217.038C196.946 217.038 196.259 216.869 195.663 216.53C195.067 216.186 194.609 215.694 194.289 215.055C193.97 214.415 193.81 213.669 193.81 212.817C193.81 211.489 194.156 210.457 194.849 209.721C195.542 208.985 196.515 208.617 197.77 208.617C198.55 208.617 199.238 208.786 199.833 209.125C200.429 209.464 200.887 209.951 201.207 210.586C201.526 211.22 201.686 211.964 201.686 212.817ZM205.45 216.893L202.355 208.769H204.673L206.242 213.398C206.417 213.984 206.526 214.539 206.569 215.062H206.613C206.637 214.597 206.746 214.042 206.94 213.398L208.502 208.769H210.82L207.724 216.893H205.45ZM217.149 216.893L216.72 215.788H216.662C216.289 216.258 215.904 216.585 215.506 216.769C215.114 216.949 214.601 217.038 213.966 217.038C213.186 217.038 212.571 216.815 212.12 216.37C211.675 215.924 211.452 215.289 211.452 214.466C211.452 213.604 211.752 212.969 212.353 212.562C212.958 212.15 213.869 211.923 215.085 211.879L216.495 211.836V211.48C216.495 210.656 216.073 210.244 215.23 210.244C214.581 210.244 213.818 210.441 212.941 210.833L212.208 209.336C213.143 208.847 214.179 208.602 215.318 208.602C216.407 208.602 217.243 208.84 217.824 209.314C218.406 209.789 218.696 210.511 218.696 211.48V216.893H217.149ZM216.495 213.129L215.637 213.158C214.993 213.177 214.513 213.294 214.199 213.507C213.884 213.72 213.726 214.045 213.726 214.48C213.726 215.105 214.085 215.418 214.802 215.418C215.315 215.418 215.724 215.27 216.03 214.975C216.34 214.679 216.495 214.287 216.495 213.797V213.129ZM224.407 215.272C224.795 215.272 225.26 215.188 225.802 215.018V216.668C225.25 216.915 224.572 217.038 223.768 217.038C222.882 217.038 222.235 216.815 221.828 216.37C221.426 215.919 221.225 215.246 221.225 214.35V210.433H220.164V209.496L221.385 208.755L222.024 207.04H223.441V208.769H225.715V210.433H223.441V214.35C223.441 214.665 223.528 214.897 223.703 215.047C223.882 215.197 224.117 215.272 224.407 215.272ZM227.357 206.669C227.357 205.948 227.759 205.587 228.564 205.587C229.368 205.587 229.77 205.948 229.77 206.669C229.77 207.013 229.668 207.282 229.465 207.476C229.266 207.665 228.966 207.759 228.564 207.759C227.759 207.759 227.357 207.396 227.357 206.669ZM229.668 216.893H227.452V208.769H229.668V216.893ZM233.766 212.817C233.766 213.621 233.897 214.229 234.158 214.64C234.425 215.052 234.856 215.258 235.452 215.258C236.043 215.258 236.467 215.055 236.723 214.648C236.985 214.236 237.116 213.626 237.116 212.817C237.116 212.012 236.985 211.409 236.723 211.007C236.462 210.605 236.033 210.404 235.437 210.404C234.846 210.404 234.42 210.605 234.158 211.007C233.897 211.405 233.766 212.008 233.766 212.817ZM239.383 212.817C239.383 214.139 239.034 215.173 238.336 215.919C237.639 216.665 236.668 217.038 235.423 217.038C234.643 217.038 233.955 216.869 233.359 216.53C232.763 216.186 232.306 215.694 231.986 215.055C231.666 214.415 231.506 213.669 231.506 212.817C231.506 211.489 231.853 210.457 232.545 209.721C233.238 208.985 234.212 208.617 235.466 208.617C236.246 208.617 236.934 208.786 237.53 209.125C238.126 209.464 238.584 209.951 238.903 210.586C239.223 211.22 239.383 211.964 239.383 212.817ZM248.712 216.893H246.496V212.148C246.496 211.562 246.392 211.124 246.184 210.833C245.976 210.537 245.644 210.39 245.188 210.39C244.568 210.39 244.12 210.598 243.844 211.015C243.568 211.426 243.43 212.112 243.43 213.071V216.893H241.214V208.769H242.907L243.205 209.808H243.328C243.575 209.416 243.914 209.121 244.346 208.922C244.781 208.718 245.276 208.617 245.828 208.617C246.772 208.617 247.489 208.873 247.979 209.387C248.468 209.896 248.712 210.632 248.712 211.596V216.893ZM69.6833 230.985H70.4099C71.1219 230.985 71.6475 230.867 71.9866 230.629C72.3257 230.392 72.4952 230.019 72.4952 229.51C72.4952 229.007 72.3209 228.648 71.9721 228.435C71.6281 228.222 71.0929 228.115 70.3663 228.115H69.6833V230.985ZM69.6833 232.817V236.893H67.4308V226.27H70.5261C71.9697 226.27 73.0378 226.534 73.7305 227.062C74.4232 227.585 74.7695 228.382 74.7695 229.452C74.7695 230.077 74.5976 230.634 74.2536 231.124C73.9097 231.608 73.4229 231.988 72.7931 232.264C74.3917 234.652 75.4332 236.195 75.9176 236.893H73.418L70.8822 232.817H69.6833ZM80.4443 230.193C79.9745 230.193 79.6063 230.344 79.3399 230.644C79.0735 230.939 78.9209 231.361 78.8821 231.908H81.992C81.9823 231.361 81.8394 230.939 81.5633 230.644C81.2872 230.344 80.9142 230.193 80.4443 230.193ZM80.7568 237.038C79.4489 237.038 78.4268 236.677 77.6905 235.955C76.9542 235.234 76.586 234.212 76.586 232.889C76.586 231.528 76.9251 230.477 77.6033 229.736C78.2863 228.99 79.2285 228.617 80.4298 228.617C81.5778 228.617 82.4716 228.944 83.111 229.598C83.7504 230.252 84.0701 231.155 84.0701 232.308V233.383H78.8313C78.8555 234.013 79.042 234.505 79.3908 234.858C79.7395 235.212 80.2288 235.389 80.8585 235.389C81.3478 235.389 81.8104 235.338 82.2463 235.236C82.6823 235.134 83.1376 234.972 83.6124 234.749V236.464C83.2248 236.658 82.8107 236.801 82.3699 236.893C81.929 236.99 81.3914 237.038 80.7568 237.038ZM91.5397 234.48C91.5397 235.314 91.249 235.948 90.6677 236.384C90.0913 236.82 89.2266 237.038 88.0737 237.038C87.4828 237.038 86.979 236.997 86.5624 236.915C86.1458 236.837 85.7559 236.721 85.3925 236.566V234.735C85.8043 234.929 86.2669 235.091 86.7804 235.222C87.2987 235.352 87.754 235.418 88.1464 235.418C88.9505 235.418 89.3526 235.185 89.3526 234.72C89.3526 234.546 89.2993 234.405 89.1927 234.299C89.0861 234.187 88.9021 234.064 88.6405 233.928C88.3789 233.788 88.0301 233.626 87.5942 233.441C86.9693 233.18 86.5091 232.938 86.2136 232.715C85.923 232.492 85.7098 232.238 85.5742 231.952C85.4434 231.661 85.378 231.305 85.378 230.884C85.378 230.162 85.6565 229.605 86.2136 229.213C86.7755 228.815 87.57 228.617 88.5969 228.617C89.5754 228.617 90.5272 228.83 91.4525 229.256L90.784 230.855C90.3771 230.68 89.9968 230.537 89.6432 230.426C89.2896 230.315 88.9287 230.259 88.5606 230.259C87.9066 230.259 87.5796 230.436 87.5796 230.789C87.5796 230.988 87.6838 231.16 87.8921 231.305C88.1052 231.451 88.5678 231.666 89.2799 231.952C89.9145 232.209 90.3795 232.448 90.675 232.671C90.9705 232.894 91.1885 233.151 91.3289 233.441C91.4694 233.732 91.5397 234.078 91.5397 234.48ZM96.6332 230.193C96.1633 230.193 95.7952 230.344 95.5287 230.644C95.2623 230.939 95.1097 231.361 95.071 231.908H98.1809C98.1712 231.361 98.0283 230.939 97.7522 230.644C97.4761 230.344 97.1031 230.193 96.6332 230.193ZM96.9456 237.038C95.6377 237.038 94.6156 236.677 93.8793 235.955C93.143 235.234 92.7749 234.212 92.7749 232.889C92.7749 231.528 93.114 230.477 93.7921 229.736C94.4752 228.99 95.4173 228.617 96.6187 228.617C97.7667 228.617 98.6604 228.944 99.2998 229.598C99.9393 230.252 100.259 231.155 100.259 232.308V233.383H95.0201C95.0443 234.013 95.2308 234.505 95.5796 234.858C95.9284 235.212 96.4176 235.389 97.0474 235.389C97.5366 235.389 97.9992 235.338 98.4352 235.236C98.8711 235.134 99.3265 234.972 99.8012 234.749V236.464C99.4137 236.658 98.9995 236.801 98.5587 236.893C98.1179 236.99 97.5802 237.038 96.9456 237.038ZM107.22 236.893L106.791 235.788H106.733C106.36 236.258 105.975 236.585 105.578 236.769C105.185 236.949 104.672 237.038 104.037 237.038C103.257 237.038 102.642 236.815 102.192 236.37C101.746 235.924 101.523 235.289 101.523 234.466C101.523 233.604 101.824 232.969 102.424 232.562C103.03 232.15 103.94 231.923 105.156 231.879L106.566 231.836V231.48C106.566 230.656 106.145 230.244 105.302 230.244C104.653 230.244 103.89 230.441 103.013 230.833L102.279 229.336C103.214 228.847 104.25 228.602 105.389 228.602C106.479 228.602 107.314 228.84 107.896 229.314C108.477 229.789 108.768 230.511 108.768 231.48V236.893H107.22ZM106.566 233.129L105.709 233.158C105.064 233.177 104.585 233.294 104.27 233.507C103.955 233.72 103.798 234.045 103.798 234.48C103.798 235.105 104.156 235.418 104.873 235.418C105.386 235.418 105.796 235.27 106.101 234.975C106.411 234.679 106.566 234.287 106.566 233.797V233.129ZM115.59 228.617C115.891 228.617 116.14 228.639 116.339 228.682L116.172 230.76C115.992 230.712 115.774 230.688 115.518 230.688C114.811 230.688 114.258 230.869 113.861 231.233C113.469 231.596 113.273 232.104 113.273 232.758V236.893H111.056V228.769H112.735L113.062 230.135H113.171C113.423 229.68 113.762 229.314 114.188 229.038C114.619 228.757 115.087 228.617 115.59 228.617ZM121.113 237.038C118.584 237.038 117.32 235.65 117.32 232.875C117.32 231.494 117.664 230.441 118.352 229.714C119.039 228.982 120.025 228.617 121.309 228.617C122.249 228.617 123.091 228.801 123.837 229.169L123.183 230.884C122.835 230.743 122.51 230.629 122.21 230.542C121.909 230.45 121.609 230.404 121.309 230.404C120.156 230.404 119.58 231.223 119.58 232.86C119.58 234.449 120.156 235.243 121.309 235.243C121.735 235.243 122.13 235.188 122.493 235.076C122.857 234.96 123.22 234.781 123.583 234.539V236.435C123.225 236.663 122.861 236.82 122.493 236.907C122.13 236.995 121.67 237.038 121.113 237.038ZM132.971 236.893H130.755V232.148C130.755 230.976 130.319 230.39 129.447 230.39C128.827 230.39 128.379 230.6 128.103 231.022C127.827 231.443 127.688 232.126 127.688 233.071V236.893H125.472V225.587H127.688V227.89C127.688 228.069 127.672 228.491 127.638 229.154L127.587 229.808H127.703C128.197 229.014 128.982 228.617 130.057 228.617C131.011 228.617 131.736 228.873 132.23 229.387C132.724 229.9 132.971 230.637 132.971 231.596V236.893ZM143.325 230.927H147.539V236.435C146.856 236.658 146.212 236.813 145.607 236.9C145.006 236.992 144.391 237.038 143.761 237.038C142.158 237.038 140.932 236.568 140.084 235.629C139.242 234.684 138.82 233.33 138.82 231.567C138.82 229.852 139.309 228.515 140.288 227.556C141.271 226.597 142.632 226.117 144.371 226.117C145.461 226.117 146.512 226.335 147.525 226.771L146.776 228.573C146.001 228.186 145.195 227.992 144.357 227.992C143.383 227.992 142.603 228.319 142.017 228.973C141.431 229.627 141.138 230.506 141.138 231.61C141.138 232.763 141.373 233.645 141.843 234.255C142.318 234.861 143.005 235.163 143.906 235.163C144.376 235.163 144.853 235.115 145.338 235.018V232.802H143.325V230.927ZM154.435 228.617C154.735 228.617 154.985 228.639 155.183 228.682L155.016 230.76C154.837 230.712 154.619 230.688 154.362 230.688C153.655 230.688 153.103 230.869 152.706 231.233C152.313 231.596 152.117 232.104 152.117 232.758V236.893H149.901V228.769H151.579L151.906 230.135H152.015C152.267 229.68 152.606 229.314 153.033 229.038C153.464 228.757 153.931 228.617 154.435 228.617ZM158.424 232.817C158.424 233.621 158.555 234.229 158.816 234.64C159.083 235.052 159.514 235.258 160.11 235.258C160.701 235.258 161.125 235.055 161.381 234.648C161.643 234.236 161.774 233.626 161.774 232.817C161.774 232.012 161.643 231.409 161.381 231.007C161.12 230.605 160.691 230.404 160.095 230.404C159.504 230.404 159.078 230.605 158.816 231.007C158.555 231.405 158.424 232.008 158.424 232.817ZM164.041 232.817C164.041 234.139 163.692 235.173 162.994 235.919C162.297 236.665 161.326 237.038 160.081 237.038C159.301 237.038 158.613 236.869 158.017 236.53C157.421 236.186 156.964 235.694 156.644 235.055C156.324 234.415 156.164 233.669 156.164 232.817C156.164 231.489 156.511 230.457 157.203 229.721C157.896 228.985 158.87 228.617 160.124 228.617C160.904 228.617 161.592 228.786 162.188 229.125C162.784 229.464 163.241 229.951 163.561 230.586C163.881 231.22 164.041 231.964 164.041 232.817ZM171.627 236.893L171.329 235.854H171.212C170.975 236.232 170.638 236.525 170.202 236.733C169.766 236.936 169.27 237.038 168.713 237.038C167.759 237.038 167.039 236.784 166.555 236.275C166.07 235.762 165.828 235.025 165.828 234.066V228.769H168.044V233.514C168.044 234.1 168.148 234.541 168.357 234.837C168.565 235.127 168.897 235.272 169.352 235.272C169.972 235.272 170.42 235.067 170.696 234.655C170.973 234.238 171.111 233.55 171.111 232.591V228.769H173.327V236.893H171.627ZM180.113 237.038C179.159 237.038 178.411 236.692 177.868 235.999H177.752C177.829 236.677 177.868 237.07 177.868 237.176V240.468H175.652V228.769H177.454L177.766 229.823H177.868C178.386 229.019 179.154 228.617 180.171 228.617C181.131 228.617 181.881 228.987 182.424 229.728C182.966 230.47 183.238 231.499 183.238 232.817C183.238 233.684 183.109 234.437 182.853 235.076C182.601 235.716 182.24 236.203 181.77 236.537C181.3 236.871 180.748 237.038 180.113 237.038ZM179.459 230.39C178.912 230.39 178.512 230.559 178.26 230.898C178.009 231.233 177.878 231.787 177.868 232.562V232.802C177.868 233.674 177.996 234.299 178.253 234.677C178.515 235.055 178.927 235.243 179.488 235.243C180.481 235.243 180.978 234.425 180.978 232.787C180.978 231.988 180.854 231.39 180.607 230.993C180.365 230.591 179.983 230.39 179.459 230.39Z" fill="#730095"/>
<path d="M390.216 158.896H323.016L309.768 190H284.04L344.52 55.6H369.096L429.768 190H403.656L390.216 158.896ZM381.96 139.312L356.616 80.56L331.464 139.312H381.96ZM547.661 169.072V190H446.861V55.6H544.973V76.528H471.821V111.472H536.717V132.016H471.821V169.072H547.661ZM575.486 55.6H600.446V190H575.486V55.6ZM724.734 190L697.278 150.64C696.126 150.768 694.398 150.832 692.094 150.832H661.758V190H636.798V55.6H692.094C703.742 55.6 713.854 57.52 722.43 61.36C731.134 65.2 737.79 70.704 742.398 77.872C747.006 85.04 749.31 93.552 749.31 103.408C749.31 113.52 746.814 122.224 741.822 129.52C736.958 136.816 729.918 142.256 720.702 145.84L751.614 190H724.734ZM724.158 103.408C724.158 94.832 721.342 88.24 715.71 83.632C710.078 79.024 701.822 76.72 690.942 76.72H661.758V130.288H690.942C701.822 130.288 710.078 127.984 715.71 123.376C721.342 118.64 724.158 111.984 724.158 103.408ZM869.012 121.264H892.628V174.832C885.716 180.336 877.652 184.56 868.436 187.504C859.22 190.448 849.748 191.92 840.02 191.92C826.324 191.92 813.972 188.976 802.964 183.088C791.956 177.072 783.316 168.816 777.044 158.32C770.772 147.824 767.636 135.984 767.636 122.8C767.636 109.616 770.772 97.776 777.044 87.28C783.316 76.784 791.956 68.592 802.964 62.704C814.1 56.688 826.58 53.68 840.404 53.68C851.668 53.68 861.908 55.536 871.124 59.248C880.34 62.96 888.084 68.4 894.356 75.568L878.612 90.928C868.372 80.688 856.02 75.568 841.556 75.568C832.084 75.568 823.636 77.552 816.212 81.52C808.916 85.488 803.156 91.056 798.932 98.224C794.836 105.392 792.788 113.584 792.788 122.8C792.788 131.76 794.836 139.824 798.932 146.992C803.156 154.16 808.916 159.792 816.212 163.888C823.636 167.984 832.02 170.032 841.364 170.032C851.86 170.032 861.076 167.728 869.012 163.12V121.264Z" fill="white"/>
</svg>
